<svg xmlns="http://www.w3.org/2000/svg" version="1.1" xmlns:xlink="http://www.w3.org/1999/xlink" xmlns:svgjs="http://svgjs.dev/svgjs" width="2000" height="1999" viewBox="0 0 2000 1999"><g transform="matrix(1,0,0,1,-0.431486880466764,-0.4312711370263287)"><svg viewBox="0 0 343 343" data-background-color="#ffffff" preserveAspectRatio="xMidYMid meet" height="1999" width="2000" xmlns="http://www.w3.org/2000/svg" xmlns:xlink="http://www.w3.org/1999/xlink"><g id="tight-bounds" transform="matrix(1,0,0,1,0.0740000000000407,0.07400000000001228)"><svg viewBox="0 0 342.85155851775386 342.85155851775386" height="342.85155851775386" width="342.85155851775386"><g><svg></svg></g><g><svg viewBox="0 0 342.85155851775386 342.85155851775386" height="342.85155851775386" width="342.85155851775386"><g><path d="M0 171.426c0-94.676 76.75-171.426 171.426-171.426 94.676 0 171.426 76.75 171.426 171.426 0 94.676-76.75 171.426-171.426 171.426-94.676 0-171.426-76.75-171.426-171.426zM171.426 339.484c92.816 0 168.058-75.242 168.058-168.058 0-92.816-75.242-168.058-168.058-168.058-92.816 0-168.058 75.242-168.058 168.058 0 92.816 75.242 168.058 168.058 168.058z" data-fill-palette-color="tertiary" fill="#729343" stroke="transparent"></path><ellipse rx="164.56874808852186" ry="164.56874808852186" cx="171.42577925887693" cy="171.42577925887693" fill="#729343" stroke="transparent" stroke-width="0" fill-opacity="1" data-fill-palette-color="tertiary"></ellipse></g><g transform="matrix(1,0,0,1,64.84655864529837,101.44814716282704)"><svg viewBox="0 0 213.1584412271571 139.95526419209978" height="139.95526419209978" width="213.1584412271571"><g><svg viewBox="0 0 213.1584412271571 139.95526419209978" height="139.95526419209978" width="213.1584412271571"><g><svg viewBox="0 0 213.1584412271571 139.95526419209978" height="139.95526419209978" width="213.1584412271571"><g transform="matrix(1,0,0,1,0,84.90132806298024)"><svg viewBox="0 0 213.1584412271571 55.05393612911955" height="55.05393612911955" width="213.1584412271571"><g id="textblocktransform"><svg viewBox="0 0 213.1584412271571 55.05393612911955" height="55.05393612911955" width="213.1584412271571" id="textblock"><g><svg viewBox="0 0 213.1584412271571 37.34724551643123" height="37.34724551643123" width="213.1584412271571"><g transform="matrix(1,0,0,1,0,0)"><svg width="213.1584412271571" viewBox="1.75 -37.8 221.43 38.8" height="37.34724551643123" data-palette-color="#ffffff"><path d="M22.3-35L27.15-35.5 26.65-33.05 26.6-26.5 24.8-26.1 23.5-32.75 11.1-33.15 10.6-19.6 18.95-19.85 19.95-24.65 21.95-23.9 21.45-18.2 21.95-12.15 19.95-12.55 19-17.5 10.6-17 11.1-2.45 15.75-1.5 15.5 0.25 8.35 0 1.75 0.5 1.85-1.25 5.85-2.5 6.35-17.85 5.85-32.5 1.8-33.7 2.05-35.45 8.35-35 22.3-35ZM38.35-24.95L38.15-20.9 38.35-20.9 41.45-24.45 44.85-25.95 48.6-25 47.75-17.55 46-17.9 44.75-23.05 41.5-22 37.95-17.85 37.7-13.15 37.85-8.3 38.05-2.5 43.05-1.5 42.8 0.25 35.55 0 29.45 0.25 29.55-1.5 32.85-2.5 33.1-7.75 33-17.35 32.75-22.55 29.2-22.4 28.95-24.15 35.85-25.5 38.35-24.95ZM65.19-12.9L56.55-13.45 56.49-13 57.84-5.95 61.8-2.05 66.39-1.55 71.09-4.05 72-2.75 68.05 0.4 63.34 1 58.45-0.15 54.2-3.7 51.64-11.2 52.49-17.9 55.09-22.6 60.34-25.5 64.75-26.05 68.25-24.95 70.94-22.5 72.5-18.05 72.55-13.9 71.84-13.35 65.19-12.9ZM62.84-23.8L59.05-21.55 57.09-17.75 56.8-15.5 64.39-15.4 67.84-16.15 67.55-20.8 66.05-23.35 62.84-23.8ZM79.29-7.5L79.69-1.95 83.84-1.3 88.49-1.95 89.59-5.35 88.24-7.95 78.94-13.6 76.94-16.75 76.84-22.05 80.39-25.05 85.64-26 92.99-24.5 91.94-17.15 89.84-17.85 88.89-23.05 85.44-23.7 81.69-22.85 80.74-20.1 81.94-17.15 91.54-11.65 93.89-8.7 94.09-4 90.69 0 84.69 1 80.54 0.8 75.89-1 77.14-8.2 79.29-7.5ZM105.59-37.25L105.34-30.45 105.19-22.25 110.74-25.65 115.84-26 120.44-22.85 121.19-18.85 121.09-8.3 121.49-2.45 125.04-1.5 124.79 0.25 118.89 0 112.79 0.25 112.89-1.5 116.19-2.5 116.54-7.75 116.34-18.65 114.99-21.95 110.74-22.7 105.14-19.85 105.04-13.15 105.14-8.3 105.29-2.5 108.94-1.5 108.69 0.25 102.79 0 96.69 0.25 96.79-1.5 100.09-2.5 100.54-7.75 100.34-29.65 99.99-34.85 96.44-34.7 96.19-36.45 103.09-37.8 105.59-37.25ZM148.14-35L152.99-35.5 152.49-33.05 152.44-26.5 150.64-26.1 149.34-32.75 136.94-33.15 136.44-19.6 144.79-19.85 145.79-24.65 147.79-23.9 147.29-18.2 147.79-12.15 145.79-12.55 144.84-17.5 136.44-17 136.94-2.45 141.59-1.5 141.34 0.25 134.19 0 127.59 0.5 127.69-1.25 131.69-2.5 132.19-17.85 131.69-32.5 127.64-33.7 127.89-35.45 134.19-35 148.14-35ZM174.29-19.8L174.34-9.1 174.69-2.05 178.14-1.55 177.79 0.1 170.84 0.7 170.19-2.25 169.94-2.25 164.99 0.7 159.79 0.7 156.29-1.85 155.24-6.75 157.44-10.65 163.44-13.25 170.04-13.5 169.84-19.75 168.89-22.85 164.84-24 159.99-22.85 159.84-17.55 157.89-17.15 156.59-24 162.34-25.7 168.79-26 172.69-24.1 174.29-19.8ZM160.09-6.85L161.44-2.8 165.19-1.85 170.24-4.75 170.04-11.5 165.69-11.5 161.84-9.95 160.09-6.85ZM188.98-24.95L188.78-20.9 188.98-20.9 192.08-24.45 195.48-25.95 199.23-25 198.38-17.55 196.63-17.9 195.38-23.05 192.13-22 188.58-17.85 188.33-13.15 188.48-8.3 188.68-2.5 193.68-1.5 193.43 0.25 186.18 0 180.08 0.25 180.18-1.5 183.48-2.5 183.73-7.75 183.63-17.35 183.38-22.55 179.83-22.4 179.58-24.15 186.48-25.5 188.98-24.95ZM215.83-12.9L207.18-13.45 207.13-13 208.48-5.95 212.43-2.05 217.03-1.55 221.73-4.05 222.63-2.75 218.68 0.4 213.98 1 209.08-0.15 204.83-3.7 202.28-11.2 203.13-17.9 205.73-22.6 210.98-25.5 215.38-26.05 218.88-24.95 221.58-22.5 223.13-18.05 223.18-13.9 222.48-13.35 215.83-12.9ZM213.48-23.8L209.68-21.55 207.73-17.75 207.43-15.5 215.03-15.4 218.48-16.15 218.18-20.8 216.68-23.35 213.48-23.8Z" opacity="1" transform="matrix(1,0,0,1,0,0)" fill="#ffffff" class="wordmark-text-0" data-fill-palette-color="quaternary" id="text-0"></path></svg></g></svg></g><g transform="matrix(1,0,0,1,0,46.164033848968245)"><svg viewBox="0 0 213.1584412271571 8.889902280151297" height="8.889902280151297" width="213.1584412271571"><g transform="matrix(1,0,0,1,0,0)"><svg width="213.1584412271571" viewBox="1.4 -35.35 855.9300000000001 35.7" height="8.889902280151297" data-palette-color="#ffffff"><path d="M16.2-17.25L26.55-35 31-35 18.2-13.45 18.2 0 14.2 0 14.2-13.4 1.4-35 5.85-35 16.2-17.25ZM50.55 0.35L50.55 0.35Q46.85 0.35 43.67-0.95 40.5-2.25 38.12-4.63 35.75-7 34.42-10.28 33.1-13.55 33.1-17.5L33.1-17.5Q33.1-21.45 34.42-24.73 35.75-28 38.12-30.38 40.5-32.75 43.67-34.05 46.85-35.35 50.55-35.35L50.55-35.35Q54.2-35.35 57.37-34.05 60.55-32.75 62.9-30.38 65.25-28 66.57-24.73 67.9-21.45 67.9-17.5L67.9-17.5Q67.9-13.55 66.57-10.28 65.25-7 62.9-4.63 60.55-2.25 57.37-0.95 54.2 0.35 50.55 0.35ZM50.55-3.15L50.55-3.15Q54.3-3.15 57.3-4.9 60.3-6.65 62.05-9.88 63.8-13.1 63.8-17.5L63.8-17.5Q63.8-21.95 62.05-25.18 60.3-28.4 57.3-30.13 54.3-31.85 50.55-31.85L50.55-31.85Q46.75-31.85 43.72-30.13 40.7-28.4 38.95-25.18 37.2-21.95 37.2-17.5L37.2-17.5Q37.2-13.1 38.95-9.88 40.7-6.65 43.72-4.9 46.75-3.15 50.55-3.15ZM74.05-12.95L74.05-35 78.05-35 78.05-12.9Q78.05-9.45 79.3-7.3 80.55-5.15 82.67-4.15 84.8-3.15 87.5-3.15L87.5-3.15Q90.15-3.15 92.25-4.15 94.34-5.15 95.59-7.3 96.84-9.45 96.84-12.9L96.84-12.9 96.84-35 100.84-35 100.84-12.95Q100.84-9.5 99.77-7 98.7-4.5 96.8-2.88 94.9-1.25 92.5-0.45 90.09 0.35 87.45 0.35L87.45 0.35Q83.84 0.35 80.8-1.07 77.75-2.5 75.9-5.45 74.05-8.4 74.05-12.95L74.05-12.95ZM129.29-24.65L129.29-24.65Q129.29-27.8 127.44-29.65 125.59-31.5 121.39-31.5L121.39-31.5 113.09-31.5 113.09-17.8 121.44-17.8Q124.19-17.8 125.92-18.65 127.64-19.5 128.47-21.05 129.29-22.6 129.29-24.65ZM109.09-35L121.39-35Q125.49-35 128.12-33.6 130.74-32.2 132.04-29.88 133.34-27.55 133.34-24.65L133.34-24.65Q133.34-22.6 132.67-20.75 131.99-18.9 130.54-17.45 129.09-16 126.84-15.15 124.59-14.3 121.44-14.3L121.44-14.3 113.09-14.3 113.09 0 109.09 0 109.09-35ZM119.99-15.8L124.29-15.8 133.99 0 129.44 0 119.99-15.8ZM152.64-7.45L156.29-8.9Q156.59-7.55 157.56-6.23 158.54-4.9 160.26-4.03 161.99-3.15 164.69-3.15L164.69-3.15Q168.54-3.15 170.39-4.95 172.24-6.75 172.24-9.2L172.24-9.2Q172.24-11.15 171.19-12.4 170.14-13.65 168.34-14.48 166.54-15.3 164.29-15.95L164.29-15.95Q162.29-16.5 160.31-17.18 158.34-17.85 156.74-18.88 155.14-19.9 154.19-21.55 153.24-23.2 153.24-25.65L153.24-25.65Q153.24-28.6 154.64-30.78 156.04-32.95 158.59-34.15 161.14-35.35 164.54-35.35L164.54-35.35Q167.49-35.35 169.69-34.5 171.89-33.65 173.36-32.13 174.84-30.6 175.54-28.6L175.54-28.6 171.99-27.25Q171.64-28.4 170.64-29.48 169.64-30.55 168.04-31.25 166.44-31.95 164.39-31.95L164.39-31.95Q162.39-31.95 160.76-31.25 159.14-30.55 158.19-29.25 157.24-27.95 157.24-26.1L157.24-26.1Q157.24-24.1 158.36-22.93 159.49-21.75 161.36-21.03 163.24-20.3 165.49-19.65L165.49-19.65Q167.54-19 169.46-18.25 171.39-17.5 172.91-16.4 174.44-15.3 175.34-13.65 176.24-12 176.24-9.6L176.24-9.6Q176.24-6.95 174.99-4.67 173.74-2.4 171.21-1.03 168.69 0.35 164.74 0.35L164.74 0.35Q161.44 0.35 158.94-0.68 156.44-1.7 154.84-3.45 153.24-5.2 152.64-7.45L152.64-7.45ZM187.04-27.1L187.04 0 183.04 0 183.04-35 187.44-35 200.44-5.5 213.39-35 217.74-35 217.74 0 213.74 0 213.74-27.1 201.84 0 198.99 0 187.04-27.1ZM251.13 0L239.68-31.5 238.03-31.5 226.48 0 222.43 0 235.23-35 242.43-35 255.18 0 251.13 0ZM228.68-9.2L228.68-12.7 249.08-12.7 249.08-9.2 228.68-9.2ZM280.03-24.65L280.03-24.65Q280.03-27.8 278.18-29.65 276.33-31.5 272.13-31.5L272.13-31.5 263.83-31.5 263.83-17.8 272.18-17.8Q274.93-17.8 276.66-18.65 278.38-19.5 279.21-21.05 280.03-22.6 280.03-24.65ZM259.83-35L272.13-35Q276.23-35 278.86-33.6 281.48-32.2 282.78-29.88 284.08-27.55 284.08-24.65L284.08-24.65Q284.08-22.6 283.41-20.75 282.73-18.9 281.28-17.45 279.83-16 277.58-15.15 275.33-14.3 272.18-14.3L272.18-14.3 263.83-14.3 263.83 0 259.83 0 259.83-35ZM270.73-15.8L275.03-15.8 284.73 0 280.18 0 270.73-15.8ZM288.98-31.5L288.98-35 315.23-35 315.23-31.5 304.13-31.5 304.13 0 300.13 0 300.13-31.5 288.98-31.5ZM335.57 0L335.57-35 339.57-35 339.57-19.55 341.27-19.55 355.72-35 360.87-35 344.77-17.8 361.02 0 355.72 0 341.22-16.05 339.57-16.05 339.57 0 335.57 0ZM365.92 0L365.92-35 369.92-35 369.92 0 365.92 0ZM376.32-31.5L376.32-35 402.57-35 402.57-31.5 391.47-31.5 391.47 0 387.47 0 387.47-31.5 376.32-31.5ZM405.82-17.5L405.82-17.5Q405.82-21.45 407.12-24.73 408.42-28 410.79-30.38 413.17-32.75 416.29-34.05 419.42-35.35 423.12-35.35L423.12-35.35Q428.52-35.35 432.59-32.85 436.67-30.35 438.77-25.75L438.77-25.75 435.52-24.55Q434.37-27 432.47-28.58 430.57-30.15 428.17-30.95 425.77-31.75 423.12-31.75L423.12-31.75Q419.37-31.75 416.37-30.05 413.37-28.35 411.64-25.15 409.92-21.95 409.92-17.5L409.92-17.5Q409.92-13.1 411.64-9.9 413.37-6.7 416.37-4.98 419.37-3.25 423.12-3.25L423.12-3.25Q425.82-3.25 428.27-4.1 430.72-4.95 432.69-6.75 434.67-8.55 435.87-11.25L435.87-11.25 439.12-10.05Q436.97-4.9 432.82-2.27 428.67 0.35 423.12 0.35L423.12 0.35Q419.42 0.35 416.29-0.95 413.17-2.25 410.79-4.65 408.42-7.05 407.12-10.33 405.82-13.6 405.82-17.5ZM446.16 0L446.16-35 450.16-35 450.16-19.55 468.91-19.55 468.91-35 472.91-35 472.91 0 468.91 0 468.91-16.05 450.16-16.05 450.16 0 446.16 0ZM504.36-35L504.36-31.5 485.41-31.5 485.41-19.55 499.66-19.55 499.66-16.05 485.41-16.05 485.41-3.5 504.36-3.5 504.36 0 481.41 0 481.41-35 504.36-35ZM534.61-35L538.61-35 538.61 0 534.56 0 515.86-28.6 515.86 0 511.86 0 511.86-35 515.91-35 534.61-6.45 534.61-35ZM559-17.5L559-17.5Q559-21.45 560.3-24.73 561.6-28 563.98-30.38 566.35-32.75 569.48-34.05 572.6-35.35 576.3-35.35L576.3-35.35Q581.7-35.35 585.78-32.85 589.85-30.35 591.95-25.75L591.95-25.75 588.7-24.55Q587.55-27 585.65-28.58 583.75-30.15 581.35-30.95 578.95-31.75 576.3-31.75L576.3-31.75Q572.55-31.75 569.55-30.05 566.55-28.35 564.83-25.15 563.1-21.95 563.1-17.5L563.1-17.5Q563.1-13.1 564.83-9.9 566.55-6.7 569.55-4.98 572.55-3.25 576.3-3.25L576.3-3.25Q579-3.25 581.45-4.1 583.9-4.95 585.88-6.75 587.85-8.55 589.05-11.25L589.05-11.25 592.3-10.05Q590.15-4.9 586-2.27 581.85 0.35 576.3 0.35L576.3 0.35Q572.6 0.35 569.48-0.95 566.35-2.25 563.98-4.65 561.6-7.05 560.3-10.33 559-13.6 559-17.5ZM614.7 0.35L614.7 0.35Q611 0.35 607.82-0.95 604.65-2.25 602.27-4.63 599.9-7 598.57-10.28 597.25-13.55 597.25-17.5L597.25-17.5Q597.25-21.45 598.57-24.73 599.9-28 602.27-30.38 604.65-32.75 607.82-34.05 611-35.35 614.7-35.35L614.7-35.35Q618.35-35.35 621.52-34.05 624.7-32.75 627.05-30.38 629.4-28 630.72-24.73 632.05-21.45 632.05-17.5L632.05-17.5Q632.05-13.55 630.72-10.28 629.4-7 627.05-4.63 624.7-2.25 621.52-0.95 618.35 0.35 614.7 0.35ZM614.7-3.15L614.7-3.15Q618.45-3.15 621.45-4.9 624.45-6.65 626.2-9.88 627.95-13.1 627.95-17.5L627.95-17.5Q627.95-21.95 626.2-25.18 624.45-28.4 621.45-30.13 618.45-31.85 614.7-31.85L614.7-31.85Q610.9-31.85 607.87-30.13 604.85-28.4 603.1-25.18 601.35-21.95 601.35-17.5L601.35-17.5Q601.35-13.1 603.1-9.88 604.85-6.65 607.87-4.9 610.9-3.15 614.7-3.15ZM642.4-27.1L642.4 0 638.4 0 638.4-35 642.8-35 655.8-5.5 668.75-35 673.1-35 673.1 0 669.1 0 669.1-27.1 657.2 0 654.35 0 642.4-27.1ZM685.59-17.8L693.94-17.8Q696.74-17.8 698.49-18.65 700.24-19.5 701.07-21.05 701.89-22.6 701.89-24.65L701.89-24.65Q701.89-27.9 700.02-29.7 698.14-31.5 693.94-31.5L693.94-31.5 685.59-31.5 685.59-17.8ZM705.84-24.65L705.84-24.65Q705.84-22.6 705.17-20.73 704.49-18.85 703.04-17.4 701.59-15.95 699.34-15.13 697.09-14.3 693.94-14.3L693.94-14.3 685.59-14.3 685.59 0 681.59 0 681.59-35 693.94-35Q698.04-35 700.67-33.6 703.29-32.2 704.57-29.85 705.84-27.5 705.84-24.65ZM735.09 0L723.64-31.5 721.99-31.5 710.44 0 706.39 0 719.19-35 726.39-35 739.14 0 735.09 0ZM712.64-9.2L712.64-12.7 733.04-12.7 733.04-9.2 712.64-9.2ZM766.54-35L770.54-35 770.54 0 766.49 0 747.79-28.6 747.79 0 743.79 0 743.79-35 747.84-35 766.54-6.45 766.54-35ZM779.04 0L779.04-35 783.04-35 783.04 0 779.04 0ZM806.88 0.35L806.88 0.35Q803.18 0.35 800.01-0.95 796.83-2.25 794.46-4.63 792.08-7 790.76-10.28 789.43-13.55 789.43-17.5L789.43-17.5Q789.43-21.45 790.76-24.73 792.08-28 794.46-30.38 796.83-32.75 800.01-34.05 803.18-35.35 806.88-35.35L806.88-35.35Q810.53-35.35 813.71-34.05 816.88-32.75 819.23-30.38 821.58-28 822.91-24.73 824.23-21.45 824.23-17.5L824.23-17.5Q824.23-13.55 822.91-10.28 821.58-7 819.23-4.63 816.88-2.25 813.71-0.95 810.53 0.35 806.88 0.35ZM806.88-3.15L806.88-3.15Q810.63-3.15 813.63-4.9 816.63-6.65 818.38-9.88 820.13-13.1 820.13-17.5L820.13-17.5Q820.13-21.95 818.38-25.18 816.63-28.4 813.63-30.13 810.63-31.85 806.88-31.85L806.88-31.85Q803.08-31.85 800.06-30.13 797.03-28.4 795.28-25.18 793.53-21.95 793.53-17.5L793.53-17.5Q793.53-13.1 795.28-9.88 797.03-6.65 800.06-4.9 803.08-3.15 806.88-3.15ZM853.33-35L857.33-35 857.33 0 853.28 0 834.58-28.6 834.58 0 830.58 0 830.58-35 834.63-35 853.33-6.45 853.33-35Z" opacity="1" transform="matrix(1,0,0,1,0,0)" fill="#ffffff" class="slogan-text-1" data-fill-palette-color="quaternary" id="text-1"></path></svg></g></svg></g></svg></g></svg></g><g transform="matrix(1,0,0,1,60.90024699407877,0)"><svg viewBox="0 0 91.35794723899957 76.08453973044323" height="76.08453973044323" width="91.35794723899957"><g><svg xmlns="http://www.w3.org/2000/svg" class="icon-icon-0" viewBox="68.6 116.3 873.1800109138082 727.2" version="1.1" x="0" y="0" height="76.08453973044323" width="91.35794723899957" data-fill-palette-color="quaternary" id="icon-0"><path fill="#ffffff" d="M171.4 690.9c-5.6 0-10.8-1.1-15.5-3.1-15.9-7.1-20.4-26.5-29.5-65.3-16.4-70.2-26.3-112.5-12.9-165.2 6.6-26 15.7-61.7 49.7-86.4 26.4-19.2 54.7-22 69.3-22 2.2 0 4.4 0.1 6.5 0.2 11.7 0.7 51.7 5.5 76.6 35.4 33.9 40.8 17 98.7 7.9 129.8-12.4 42.2-36.8 86.5-67 121.4-30.4 35-61.4 55.2-85.1 55.2z m-2.6-30.4c0.7 0.2 1.6 0.3 2.6 0.3 11.8 0 35.6-13.9 62.4-44.8 27.5-31.8 49.7-72 60.9-110.3 8.1-27.6 21.6-73.7-2.1-102.2-17.2-20.7-46.8-24.1-55.4-24.6-0.6 0-2.2-0.1-4.6-0.1-10.9 0-32.1 2.1-51.6 16.3-25.3 18.4-32.2 45.6-38.3 69.6-11.6 45.6-2.8 83 13.1 150.9 4.2 18.8 9.2 40.1 13 44.9zM589 391.3c-43.6 0-120.7-3.7-146.4-28.5-24.5-23.6-28.4-58.6-10.7-96.2 8.4-17.8 34-33.1 46.9-39.9 4.2-15.3 13.4-44 26.6-55.1 13.1-11 44-15.5 106.6-15.5 24.3 0 56.3 23.6 98.9 57 15.9 12.5 32.4 25.4 40.8 29.4 25.5 12.1 70.7 22.9 71.2 23l37.2 8.8-33.3 18.9c-0.4 0.2-41.3 23.4-85.5 46.6-91.5 48.1-107.7 49.7-113.8 50.3-9.2 0.7-23.2 1.2-38.5 1.2zM612 186c-14.4 0-35.7 0.2-54.1 1.8-27.3 2.4-33 6.5-33.2 6.7-5.5 4.6-14.1 28-18.5 46l-1.7 6.9-6.4 3.1c-13.3 6.4-34.8 19.9-39 28.8-8.5 18.1-14.6 43.5 4.4 61.8 12.3 11.9 63.9 20.1 125.6 20.1 14.1 0 27.4-0.5 35.5-1.3 3.9-0.4 22.7-4.9 102.8-47 19.2-10.1 37.8-20.2 52.6-28.3-13.8-4.2-29.2-9.5-41.2-15.3-11.4-5.4-27.6-18.2-46.4-32.9-15.1-11.9-32.3-25.3-47.6-35.4-21.1-13.5-30-15-32.8-15zM641.7 190.2l-16-25.4c9.3-5.8 18.4-14 28.1-22.7 10.2-9.1 20.7-18.6 32.2-25.8l16 25.4c-9.3 5.8-18.4 14-28.1 22.7-10.2 9.2-20.7 18.6-32.2 25.8zM298 394.7l-12-27.5c19.7-8.6 38.9-18.7 57.1-30 9.6-6 19.1-11.5 28.3-16.9 22.3-13.1 43.4-25.4 56.5-38.3l21 21.4c-15.8 15.5-38.4 28.8-62.3 42.8-9 5.3-18.4 10.8-27.6 16.5-19.5 12.1-40 22.9-61 32zM111.592 533.395l21.213 21.213-42.992 42.991L68.6 576.386zM516.4 843.5c-10.8 0-20.7-2-25.8-3-22.2-4.5-46-13.1-63.3-19.4-28.4-10.3-81.2-29.4-129.8-80.4-30.4-32-54-71.3-68-113.6l28.5-9.5c12.7 38.2 33.9 73.6 61.3 102.4 43.6 45.9 90.3 62.8 118.2 72.9 16.5 6 39.1 14.2 59.1 18.2 28 5.7 33.1-0.4 33.3-0.6 1.6-2.1 2.9-10.4-3.9-27-6-14.8-16.5-31.4-28.1-44.5-15.4-17.3-28-22.8-43.9-29.8-16.6-7.3-37.2-16.3-64.2-40.2-25.3-22.5-47.2-49.9-63.2-79.4-11.3-20.8-20.1-43-26-66.1l29-7.5c5.3 20.7 13.2 40.6 23.3 59.3 14.4 26.5 34 51.1 56.8 71.3 23.5 20.8 40.2 28.1 56.3 35.2 17.8 7.8 34.6 15.2 54.3 37.4 13.7 15.5 26.2 35.3 33.4 53.1 12.5 30.7 6.8 47.8-0.2 56.8-9 11.4-23.8 14.4-37.1 14.4zM623.2 699.9c-35.1 0-68.5-10.4-90.7-17.3-15.4-4.8-41.2-12.8-70.6-32.5-41.6-27.9-62.8-61.7-89.7-104.5-25.5-40.6-43.9-69.9-49.5-114.1-2.3-17.9-2.4-38-0.4-53.6 3.2-24.7 11.4-38.6 25.1-42.6 2.2-0.6 4.5-1 6.7-1 12.8 0 25.2 9.5 49 37.7 24 28.5 38 50.7 49.2 68.6 3.8 6.1 7.5 11.9 11.2 17.4 21.2 31.7 53.3 79.6 101.6 93.3 7.9 2.3 12.8 2.6 16.8 2.6 2.8 0 5.6-0.2 9-0.4 4.5-0.3 9.6-0.6 16.1-0.6 11.9 0 25.3 1.1 40.8 3.3 48.3 6.9 90.1 12.8 99.5 42.3 10.2 31.7-25.5 66.9-51.9 82.8-20.7 12.3-45 18.6-72.2 18.6zM355.8 366c-3.9 8.9-6.8 33.9-3.2 61.8 4.6 36 18.6 59.7 45.2 101.9 29.4 46.8 46.3 72.2 81 95.5 25.8 17.3 48.9 24.5 62.8 28.8 21.6 6.7 51.2 15.9 81.7 15.9 22 0 40.6-4.7 56.7-14.4 24.4-14.7 41.8-38.6 38.8-47.9-0.6-1.9-3.7-6.7-19.9-11.6-14.5-4.3-34.3-7.2-55.2-10.1-14.1-2-26.1-3-36.6-3-5.6 0-10.1 0.3-14.3 0.5-3.7 0.2-7.1 0.4-10.7 0.4-8.4 0-15.8-1.1-25-3.7-59.1-16.7-94.9-70.1-118.6-105.4-3.9-5.9-7.7-11.9-11.7-18.2-11.3-18-24-38.3-46.7-65.1-13.4-16.1-20.7-22.7-24.3-25.4zM842.4 607.3c-22.1 0-45.4-5.6-69.8-16.8-29.2-13.4-52-31.2-62.9-39.8-64.8-50.7-93.6-118.8-106.3-167l29-7.6c11.5 43.7 37.5 105.4 95.7 151 20.2 15.8 81.5 63.8 140.5 46.4 11.5-3.4 23.5-9.4 32.2-16.1 9.3-7.2 11.2-12.3 11.1-13.5 0 0-0.8-5-16.3-13.4-12.7-6.8-29.8-13.1-44.9-18.5-14-5.1-20.6-6.4-26.9-7.6-6.1-1.2-12.4-2.4-23.1-6.4-30.3-11.1-58.2-29.7-82.8-55.3-19.7-20.4-31.8-39.5-37.7-48.8-5.8-9.2-11.2-18.8-15.9-28.6l27-13c4.2 8.7 8.9 17.2 14.1 25.4 10.9 17.2 44.1 69.4 105.5 92 8.5 3.1 13 4 18.6 5.1 7.1 1.4 15.2 3 31.4 8.9 38.7 14.1 78.8 28.7 80.8 58.1 2.1 29.7-37.6 52.4-64.7 60.4-11 3.5-22.6 5.1-34.6 5.1zM692.9 749.8c-16.4 0-34-3.6-50.8-14-16.6-10.3-30-26.1-38.8-45.6l27.4-12.3c4.4 9.8 12.7 23.4 27.2 32.4 32.9 20.4 72.9 2.7 88-4 14.4-6.4 41.3-18.3 43.2-34.1 2.1-17.5-25.5-37.5-35.9-45.1-17.5-12.7-29.8-15.8-46.7-20.1-12.8-3.2-27.3-6.9-46.5-15.3-22.5-9.9-64.4-28.4-94.1-68.9-16.6-22.6-22.9-43.7-27.9-60.6-5.9-19.8-9.8-32.9-26.2-43.7-13.7-9-24.9-11.4-28.5-9-0.6 0.4-2.2 3-2.5 10.2-0.4 8.1 0.9 18.1 2.1 27l0.1 0.4c2.9 22.1 10.6 43.7 23 64.2l-25.7 15.5c-14.5-24.1-23.6-49.6-27-75.8l-0.1-0.4c-2.9-22.1-6.9-52.4 13.6-66 20.7-13.8 47.5-0.3 61.5 9 25.6 16.8 32.2 38.9 38.5 60.2 4.8 16.2 9.8 33 23.3 51.4 24.9 34 62 50.4 81.9 59.1 16.9 7.4 29.5 10.6 41.8 13.7 17.9 4.5 34.8 8.8 57 24.9 15.6 11.3 52.3 37.9 48.1 72.9-3.9 32.8-39.5 48.5-60.8 57.9-11 4.9-36.3 16.1-65.2 16.1zM407 487c-8.8 6.2-3.3 35.2 13 52 10.3 10.6 28.5 20 36 14 7.6-6 2-25.9-5-38-11.3-19.3-35.3-34.1-44-28zM449.8 569.9c-14.3 0-30.7-10.3-40.6-20.4-13.9-14.3-22.9-37.4-21.2-54.7 1-11.2 6.2-17 10.3-20 3.8-2.7 8.6-4.1 13.7-4.1 16.8 0 40 16.5 51.9 36.8 8.1 13.8 18.7 43.5 1.4 57.3-4.2 3.3-9.6 5.1-15.5 5.1zM418.2 503c1.2 7.1 5.1 17.8 12.6 25.5 4.1 4.2 9.3 7.6 13.3 9.5-0.9-4.4-3-10.3-6-15.5-5.4-9.1-13.9-16-19.9-19.5zM478.2 587.1c-4.9 9.6 13.4 32.7 35.6 40.1 14.1 4.6 34.5 4.5 38.4-4.3 4-8.9-10.2-23.9-22-31.4-19-11.9-47.2-13.8-52-4.4zM533 645.2c-8 0-16.5-1.3-23.9-3.8-19-6.3-37.6-22.5-44.2-38.7-4.3-10.4-2.4-18-0.1-22.5 2.7-5.3 10.2-14.1 29.7-14.1 14.4 0 31.1 4.9 43.6 12.7 13.5 8.5 36.7 29.9 27.8 50.2-2.7 6-10.6 16.2-32.9 16.2z m-37.5-49.1c4.4 5.8 12.8 13.4 23 16.8 4.3 1.4 9.8 2.3 14.5 2.3h1.7c-2.9-3.5-7.4-7.7-12.5-10.9-8.6-5.4-19.4-7.9-26.7-8.2zM597.4 624.4c-0.3 10.8 26.2 23.8 49.4 20.8 14.7-1.9 33.1-10.8 32.8-20.4-0.3-9.7-19.5-17.2-33.4-18.8-22.2-2.5-48.5 7.8-48.8 18.4zM639.9 660.7c-18.8 0-39.1-7.5-49.5-18.2-6.8-7-8.1-14-8-18.5 0.7-22.7 34.2-33.3 56.7-33.3 3 0 6 0.2 8.9 0.5 15.9 1.8 46.1 11.2 46.6 33.3 0.6 21.7-27.9 33.4-45.9 35.7-2.9 0.3-5.8 0.5-8.8 0.5z m-23-35.6c5.2 2.7 13.6 5.6 23 5.6 1.7 0 3.4-0.1 5-0.3 6-0.8 11.7-2.9 15.6-4.9-4.1-1.9-10-3.8-16-4.5-1.7-0.2-3.5-0.3-5.4-0.3-8.9 0-16.9 2.1-22.2 4.4zM628.5 289.7c-13.6-13.3-29.2-23.7-46.4-30.9-34.3-14.5-66.5-12.9-87.4-9.1l-5.4-29.5c25-4.6 63.4-6.4 104.6 10.9 20.6 8.7 39.4 21.2 55.6 37.1l-21 21.5z" data-fill-palette-color="quaternary"></path></svg></g></svg></g><g></g></svg></g></svg></g></svg></g></svg></g><defs></defs></svg><rect width="342.85155851775386" height="342.85155851775386" fill="none" stroke="none" visibility="hidden"></rect></g></svg></g></svg>